<svg width="174" height="72" viewBox="0 0 174 72" fill="none" xmlns="http://www.w3.org/2000/svg">
<path d="M0 45.8782V26.0229H6.06086L9.69072 39.5786L13.2873 26.0229H19.3481V45.8782H15.5851V30.2447L11.6222 45.8782H7.72593L3.76306 30.2447V45.8782H0Z" fill="black"/>
<path d="M25.0427 45.8782V26.0229H39.8952V29.3871H29.0722V33.7738H39.1292V37.1049H29.0722V42.514H40.2615V45.8452H25.0427V45.8782Z" fill="black"/>
<path d="M58.2443 38.5891L62.1738 39.8095C61.5744 41.9863 60.5754 43.6024 59.1767 44.6249C57.778 45.6803 56.0131 46.208 53.8485 46.208C51.1844 46.208 48.9865 45.3175 47.2881 43.5035C45.5897 41.6894 44.7239 39.2488 44.7239 36.1155C44.7239 32.8173 45.5897 30.2447 47.3214 28.4306C49.0531 26.6166 51.3176 25.6931 54.1149 25.6931C56.5792 25.6931 58.544 26.4187 60.0758 27.837C60.975 28.6945 61.6743 29.9148 62.1405 31.498L58.1444 32.4545C57.9112 31.432 57.4117 30.6075 56.6458 30.0138C55.8799 29.4201 54.9807 29.1233 53.9151 29.1233C52.4165 29.1233 51.2177 29.651 50.2852 30.7064C49.3528 31.7618 48.8866 33.4769 48.8866 35.8516C48.8866 38.3583 49.3528 40.1393 50.2519 41.2277C51.1511 42.2831 52.3499 42.8108 53.8152 42.8108C54.8808 42.8108 55.8133 42.481 56.5792 41.7884C57.3451 41.0958 57.9112 40.0403 58.2443 38.5891Z" fill="black"/>
<path d="M67.3354 45.8782V26.0229H71.3982V33.8397H79.324V26.0229H83.3867V45.8782H79.324V37.2039H71.3982V45.8782H67.3354Z" fill="black"/>
<path d="M89.1812 45.8782V26.0229H95.242L98.8719 39.5786L102.468 26.0229H108.529V45.8782H104.766V30.2447L100.803 45.8782H96.9071L92.9442 30.2447V45.8782H89.1812Z" fill="black"/>
<path d="M132.307 45.8782H127.911L126.146 41.3596H118.12L116.455 45.8782H112.159L119.952 26.0229H124.248L132.307 45.8782ZM124.847 38.0285L122.083 30.6734L119.386 38.0285H124.847Z" fill="black"/>
<path d="M136.17 45.8782V26.0229H140.099L148.291 39.2818V26.0229H152.054V45.8782H148.025L139.933 32.9162V45.8782H136.17Z" fill="black"/>
<path d="M158.082 45.8782V26.0229H162.012L170.204 39.2818V26.0229H174V45.8782H169.937L161.845 32.9162V45.8782H158.082Z" fill="black"/>
<path d="M58.5439 18.7998C59.0102 18.8658 56.1129 0 70.2327 0C84.3526 0 115.889 23.1205 115.889 23.1205C115.889 23.1205 70.3993 -6.59643 70.3993 20.1191C70.366 20.0861 58.0777 18.7339 58.5439 18.7998Z" fill="#FF0204"/>
<path d="M131.208 53.2003C130.741 53.1343 133.639 72.0001 119.519 72.0001C105.399 72.0001 73.8625 48.8796 73.8625 48.8796C73.8625 48.8796 119.352 78.5965 119.352 51.881C119.352 51.881 131.641 53.2663 131.208 53.2003Z" fill="#FF0204"/>
</svg>
